<mxfile modified="2023-06-05T14:20:44.951Z" host="app.diagrams.net" agent="Mozilla/5.0 (Windows NT 10.0; Win64; x64) AppleWebKit/537.36 (KHTML, like Gecko) Chrome/114.0.0.0 Safari/537.36" etag="4RGjspqBEJ0M-2Jiq-ht" version="21.3.7" type="device">
  <diagram id="Ht1M8jgEwFfnCIfOTk4-" name="Page-1">
    <mxGraphModel dx="1434" dy="739" grid="1" gridSize="10" guides="1" tooltips="1" connect="1" arrows="1" fold="1" page="1" pageScale="1" pageWidth="1169" pageHeight="827" math="0" shadow="0">
      <root>
        <mxCell id="0" />
        <mxCell id="1" parent="0" />
        <object label="CloudFront (CDN)" id="cOmUpyWiTFhrprl611_j-3">
          <mxCell style="sketch=0;points=[[0,0,0],[0.25,0,0],[0.5,0,0],[0.75,0,0],[1,0,0],[0,1,0],[0.25,1,0],[0.5,1,0],[0.75,1,0],[1,1,0],[0,0.25,0],[0,0.5,0],[0,0.75,0],[1,0.25,0],[1,0.5,0],[1,0.75,0]];outlineConnect=0;fontColor=#232F3E;gradientColor=#945DF2;gradientDirection=north;fillColor=#5A30B5;strokeColor=#ffffff;dashed=0;verticalLabelPosition=bottom;verticalAlign=top;align=center;html=1;fontSize=12;fontStyle=0;aspect=fixed;shape=mxgraph.aws4.resourceIcon;resIcon=mxgraph.aws4.cloudfront;" parent="1" vertex="1">
            <mxGeometry x="308.5" y="130" width="78" height="78" as="geometry" />
          </mxCell>
        </object>
        <mxCell id="cOmUpyWiTFhrprl611_j-7" value="Users" style="sketch=0;outlineConnect=0;fontColor=#232F3E;gradientColor=none;fillColor=#232F3D;strokeColor=none;dashed=0;verticalLabelPosition=bottom;verticalAlign=top;align=center;html=1;fontSize=12;fontStyle=0;aspect=fixed;pointerEvents=1;shape=mxgraph.aws4.users;" parent="1" vertex="1">
          <mxGeometry x="20" y="320" width="78" height="78" as="geometry" />
        </mxCell>
        <mxCell id="cOmUpyWiTFhrprl611_j-13" value="API of any service" style="sketch=0;outlineConnect=0;fontColor=#232F3E;gradientColor=none;fillColor=#232F3D;strokeColor=none;dashed=0;verticalLabelPosition=bottom;verticalAlign=top;align=center;html=1;fontSize=12;fontStyle=0;aspect=fixed;pointerEvents=1;shape=mxgraph.aws4.external_toolkit;" parent="1" vertex="1">
          <mxGeometry x="1059" y="320" width="68" height="78" as="geometry" />
        </mxCell>
        <mxCell id="cOmUpyWiTFhrprl611_j-15" value="" style="edgeStyle=orthogonalEdgeStyle;html=1;endArrow=block;elbow=vertical;startArrow=block;startFill=1;endFill=1;strokeColor=#545B64;rounded=0;" parent="1" source="UEzPUAAOIrF-is8g5C7q-114" edge="1">
          <mxGeometry width="100" relative="1" as="geometry">
            <mxPoint x="379" y="320" as="sourcePoint" />
            <mxPoint x="348" y="250" as="targetPoint" />
          </mxGeometry>
        </mxCell>
        <mxCell id="cOmUpyWiTFhrprl611_j-19" value="AWS Cloud" style="points=[[0,0],[0.25,0],[0.5,0],[0.75,0],[1,0],[1,0.25],[1,0.5],[1,0.75],[1,1],[0.75,1],[0.5,1],[0.25,1],[0,1],[0,0.75],[0,0.5],[0,0.25]];outlineConnect=0;gradientColor=none;html=1;whiteSpace=wrap;fontSize=12;fontStyle=0;container=1;pointerEvents=0;collapsible=0;recursiveResize=0;shape=mxgraph.aws4.group;grIcon=mxgraph.aws4.group_aws_cloud_alt;strokeColor=#232F3E;fillColor=none;verticalAlign=top;align=left;spacingLeft=30;fontColor=#232F3E;dashed=0;" parent="1" vertex="1">
          <mxGeometry x="169" y="90" width="740" height="660" as="geometry" />
        </mxCell>
        <mxCell id="UEzPUAAOIrF-is8g5C7q-122" value="IAM Roles" style="outlineConnect=0;fontColor=#232F3E;gradientColor=none;fillColor=#C7131F;strokeColor=none;dashed=0;verticalLabelPosition=bottom;verticalAlign=top;align=center;html=1;fontSize=12;fontStyle=0;aspect=fixed;pointerEvents=1;shape=mxgraph.aws4.role;labelBackgroundColor=#ffffff;" parent="cOmUpyWiTFhrprl611_j-19" vertex="1">
          <mxGeometry x="290" y="388" width="88.63" height="50" as="geometry" />
        </mxCell>
        <mxCell id="UEzPUAAOIrF-is8g5C7q-121" value="Amazon&lt;br&gt;CloudWatch&lt;br&gt;" style="outlineConnect=0;fontColor=#232F3E;gradientColor=#F34482;gradientDirection=north;fillColor=#BC1356;strokeColor=#ffffff;dashed=0;verticalLabelPosition=bottom;verticalAlign=top;align=center;html=1;fontSize=12;fontStyle=0;aspect=fixed;shape=mxgraph.aws4.resourceIcon;resIcon=mxgraph.aws4.cloudwatch;labelBackgroundColor=#ffffff;" parent="cOmUpyWiTFhrprl611_j-19" vertex="1">
          <mxGeometry x="460.0000000000002" y="360" width="78" height="78" as="geometry" />
        </mxCell>
        <mxCell id="UEzPUAAOIrF-is8g5C7q-123" value="Amazon&lt;br&gt;CloudWatch Logs&lt;br&gt;" style="outlineConnect=0;fontColor=#232F3E;gradientColor=none;gradientDirection=north;fillColor=#F34482;strokeColor=none;dashed=0;verticalLabelPosition=bottom;verticalAlign=top;align=center;html=1;fontSize=12;fontStyle=0;aspect=fixed;shape=mxgraph.aws4.cloudwatch;labelBackgroundColor=#ffffff;" parent="cOmUpyWiTFhrprl611_j-19" vertex="1">
          <mxGeometry x="610.0000000000002" y="360" width="78" height="78" as="geometry" />
        </mxCell>
        <mxCell id="UEzPUAAOIrF-is8g5C7q-114" value="Amazon API&lt;br&gt;Gateway&lt;br&gt;" style="outlineConnect=0;fontColor=#232F3E;gradientColor=#945DF2;gradientDirection=north;fillColor=#5A30B5;strokeColor=#ffffff;dashed=0;verticalLabelPosition=bottom;verticalAlign=top;align=center;html=1;fontSize=12;fontStyle=0;aspect=fixed;shape=mxgraph.aws4.resourceIcon;resIcon=mxgraph.aws4.api_gateway;labelBackgroundColor=#ffffff;" parent="cOmUpyWiTFhrprl611_j-19" vertex="1">
          <mxGeometry x="139.5" y="230" width="78" height="78" as="geometry" />
        </mxCell>
        <mxCell id="UEzPUAAOIrF-is8g5C7q-113" value="Lambda" style="outlineConnect=0;fontColor=#232F3E;gradientColor=#F78E04;gradientDirection=north;fillColor=#D05C17;strokeColor=#ffffff;dashed=0;verticalLabelPosition=bottom;verticalAlign=top;align=center;html=1;fontSize=12;fontStyle=0;aspect=fixed;shape=mxgraph.aws4.resourceIcon;resIcon=mxgraph.aws4.lambda;labelBackgroundColor=#ffffff;spacingTop=3;" parent="cOmUpyWiTFhrprl611_j-19" vertex="1">
          <mxGeometry x="325.63" y="230" width="78" height="78" as="geometry" />
        </mxCell>
        <mxCell id="UEzPUAAOIrF-is8g5C7q-116" value="Amazon S3&lt;br&gt;host static website content&lt;br&gt;HTML, CSS, JS, media, etc." style="outlineConnect=0;fontColor=#232F3E;gradientColor=#60A337;gradientDirection=north;fillColor=#277116;strokeColor=#ffffff;dashed=0;verticalLabelPosition=bottom;verticalAlign=top;align=center;html=1;fontSize=12;fontStyle=0;aspect=fixed;shape=mxgraph.aws4.resourceIcon;resIcon=mxgraph.aws4.s3;labelBackgroundColor=#ffffff;" parent="cOmUpyWiTFhrprl611_j-19" vertex="1">
          <mxGeometry x="330.0000000000002" y="40" width="78" height="78" as="geometry" />
        </mxCell>
        <object label="CloudFront (CDN)" id="cOmUpyWiTFhrprl611_j-16">
          <mxCell style="sketch=0;points=[[0,0,0],[0.25,0,0],[0.5,0,0],[0.75,0,0],[1,0,0],[0,1,0],[0.25,1,0],[0.5,1,0],[0.75,1,0],[1,1,0],[0,0.25,0],[0,0.5,0],[0,0.75,0],[1,0.25,0],[1,0.5,0],[1,0.75,0]];outlineConnect=0;fontColor=#232F3E;gradientColor=#945DF2;gradientDirection=north;fillColor=#5A30B5;strokeColor=#ffffff;dashed=0;verticalLabelPosition=bottom;verticalAlign=top;align=center;html=1;fontSize=12;fontStyle=0;aspect=fixed;shape=mxgraph.aws4.resourceIcon;resIcon=mxgraph.aws4.cloudfront;" parent="cOmUpyWiTFhrprl611_j-19" vertex="1">
            <mxGeometry x="139.5" y="510" width="78" height="78" as="geometry" />
          </mxCell>
        </object>
        <mxCell id="cOmUpyWiTFhrprl611_j-17" value="Amazon S3&lt;br&gt;host static website content&lt;br&gt;HTML, CSS, JS, media, etc." style="outlineConnect=0;fontColor=#232F3E;gradientColor=#60A337;gradientDirection=north;fillColor=#277116;strokeColor=#ffffff;dashed=0;verticalLabelPosition=bottom;verticalAlign=top;align=center;html=1;fontSize=12;fontStyle=0;aspect=fixed;shape=mxgraph.aws4.resourceIcon;resIcon=mxgraph.aws4.s3;labelBackgroundColor=#ffffff;" parent="cOmUpyWiTFhrprl611_j-19" vertex="1">
          <mxGeometry x="330.0000000000002" y="510" width="78" height="78" as="geometry" />
        </mxCell>
        <mxCell id="zZVDmqGhuaCOgbj34oNm-6" value="" style="edgeStyle=orthogonalEdgeStyle;html=1;endArrow=block;elbow=vertical;startArrow=block;startFill=1;endFill=1;strokeColor=#545B64;rounded=0;exitX=0.5;exitY=0;exitDx=0;exitDy=0;exitPerimeter=0;" parent="cOmUpyWiTFhrprl611_j-19" source="cOmUpyWiTFhrprl611_j-16" edge="1">
          <mxGeometry width="100" relative="1" as="geometry">
            <mxPoint x="178" y="465" as="sourcePoint" />
            <mxPoint x="179" y="350" as="targetPoint" />
          </mxGeometry>
        </mxCell>
        <mxCell id="zZVDmqGhuaCOgbj34oNm-9" value="Frontend" style="fillColor=none;strokeColor=#147EBA;dashed=1;verticalAlign=top;fontStyle=0;fontColor=#147EBA;" parent="cOmUpyWiTFhrprl611_j-19" vertex="1">
          <mxGeometry x="110" y="20" width="350" height="156" as="geometry" />
        </mxCell>
        <mxCell id="zZVDmqGhuaCOgbj34oNm-10" value="Admin" style="fillColor=none;strokeColor=#147EBA;dashed=1;verticalAlign=top;fontStyle=0;fontColor=#147EBA;" parent="cOmUpyWiTFhrprl611_j-19" vertex="1">
          <mxGeometry x="110" y="490" width="350" height="156" as="geometry" />
        </mxCell>
        <mxCell id="zZVDmqGhuaCOgbj34oNm-14" value="" style="edgeStyle=orthogonalEdgeStyle;html=1;endArrow=block;elbow=vertical;startArrow=block;startFill=1;endFill=1;strokeColor=#545B64;rounded=0;" parent="cOmUpyWiTFhrprl611_j-19" source="UEzPUAAOIrF-is8g5C7q-114" target="UEzPUAAOIrF-is8g5C7q-113" edge="1">
          <mxGeometry width="100" relative="1" as="geometry">
            <mxPoint x="290" y="270" as="sourcePoint" />
            <mxPoint x="330" y="270" as="targetPoint" />
          </mxGeometry>
        </mxCell>
        <mxCell id="zZVDmqGhuaCOgbj34oNm-15" value="" style="edgeStyle=orthogonalEdgeStyle;html=1;endArrow=block;elbow=vertical;startArrow=block;startFill=1;endFill=1;strokeColor=#545B64;rounded=0;" parent="cOmUpyWiTFhrprl611_j-19" source="cOmUpyWiTFhrprl611_j-7" edge="1">
          <mxGeometry width="100" relative="1" as="geometry">
            <mxPoint x="39.5" y="268.71000000000004" as="sourcePoint" />
            <mxPoint x="139.5" y="268.71000000000004" as="targetPoint" />
          </mxGeometry>
        </mxCell>
        <mxCell id="zZVDmqGhuaCOgbj34oNm-17" value="" style="edgeStyle=orthogonalEdgeStyle;html=1;endArrow=block;elbow=vertical;startArrow=block;startFill=1;endFill=1;strokeColor=#545B64;rounded=0;exitX=1;exitY=0.5;exitDx=0;exitDy=0;exitPerimeter=0;" parent="cOmUpyWiTFhrprl611_j-19" source="cOmUpyWiTFhrprl611_j-16" edge="1">
          <mxGeometry width="100" relative="1" as="geometry">
            <mxPoint x="230" y="548.71" as="sourcePoint" />
            <mxPoint x="330" y="548.71" as="targetPoint" />
          </mxGeometry>
        </mxCell>
        <mxCell id="zZVDmqGhuaCOgbj34oNm-18" value="" style="edgeStyle=orthogonalEdgeStyle;html=1;endArrow=block;elbow=vertical;startArrow=block;startFill=1;endFill=1;strokeColor=#545B64;rounded=0;" parent="cOmUpyWiTFhrprl611_j-19" target="UEzPUAAOIrF-is8g5C7q-123" edge="1">
          <mxGeometry width="100" relative="1" as="geometry">
            <mxPoint x="538" y="398.8299999999999" as="sourcePoint" />
            <mxPoint x="638" y="398.8299999999999" as="targetPoint" />
          </mxGeometry>
        </mxCell>
        <mxCell id="zZVDmqGhuaCOgbj34oNm-19" value="" style="edgeStyle=orthogonalEdgeStyle;html=1;endArrow=block;elbow=vertical;startArrow=block;startFill=1;endFill=1;strokeColor=#545B64;rounded=0;" parent="cOmUpyWiTFhrprl611_j-19" source="UEzPUAAOIrF-is8g5C7q-122" target="UEzPUAAOIrF-is8g5C7q-113" edge="1">
          <mxGeometry width="100" relative="1" as="geometry">
            <mxPoint x="320" y="350" as="sourcePoint" />
            <mxPoint x="420" y="350" as="targetPoint" />
            <Array as="points">
              <mxPoint x="334" y="330" />
              <mxPoint x="334" y="330" />
            </Array>
          </mxGeometry>
        </mxCell>
        <mxCell id="zZVDmqGhuaCOgbj34oNm-20" value="" style="edgeStyle=orthogonalEdgeStyle;html=1;endArrow=block;elbow=vertical;startArrow=block;startFill=1;endFill=1;strokeColor=#545B64;rounded=0;" parent="cOmUpyWiTFhrprl611_j-19" source="UEzPUAAOIrF-is8g5C7q-113" target="UEzPUAAOIrF-is8g5C7q-121" edge="1">
          <mxGeometry width="100" relative="1" as="geometry">
            <mxPoint x="400" y="370" as="sourcePoint" />
            <mxPoint x="500" y="370" as="targetPoint" />
            <Array as="points">
              <mxPoint x="390" y="400" />
            </Array>
          </mxGeometry>
        </mxCell>
        <mxCell id="zZVDmqGhuaCOgbj34oNm-13" value="" style="edgeStyle=orthogonalEdgeStyle;html=1;endArrow=block;elbow=vertical;startArrow=none;endFill=1;strokeColor=#545B64;rounded=0;entryX=-0.003;entryY=0.513;entryDx=0;entryDy=0;entryPerimeter=0;" parent="1" source="UEzPUAAOIrF-is8g5C7q-113" target="cOmUpyWiTFhrprl611_j-13" edge="1">
          <mxGeometry width="100" relative="1" as="geometry">
            <mxPoint x="789" y="410" as="sourcePoint" />
            <mxPoint x="889" y="410" as="targetPoint" />
            <Array as="points">
              <mxPoint x="569" y="360" />
              <mxPoint x="569" y="360" />
            </Array>
          </mxGeometry>
        </mxCell>
        <mxCell id="zZVDmqGhuaCOgbj34oNm-16" value="" style="edgeStyle=orthogonalEdgeStyle;html=1;endArrow=block;elbow=vertical;startArrow=block;startFill=1;endFill=1;strokeColor=#545B64;rounded=0;exitX=1;exitY=0.5;exitDx=0;exitDy=0;exitPerimeter=0;" parent="1" source="cOmUpyWiTFhrprl611_j-3" target="UEzPUAAOIrF-is8g5C7q-116" edge="1">
          <mxGeometry width="100" relative="1" as="geometry">
            <mxPoint x="394.63" y="168.76" as="sourcePoint" />
            <mxPoint x="459" y="169" as="targetPoint" />
          </mxGeometry>
        </mxCell>
      </root>
    </mxGraphModel>
  </diagram>
</mxfile>
